<?xml version="1.0" standalone="no"?>
<!DOCTYPE svg PUBLIC "-//W3C//DTD SVG 20010904//EN"
 "http://www.w3.org/TR/2001/REC-SVG-20010904/DTD/svg10.dtd">
<svg version="1.0" xmlns="http://www.w3.org/2000/svg"
 width="512.000000pt" height="512.000000pt" viewBox="0 0 512.000000 512.000000"
 preserveAspectRatio="xMidYMid meet">

<g transform="translate(0.000000,512.000000) scale(0.100000,-0.100000)"
fill="#6b3f23" stroke="none">
<path d="M2365 5109 c-433 -40 -825 -175 -1125 -388 -116 -82 -292 -250 -375
-357 -239 -310 -360 -643 -381 -1048 -26 -511 249 -1071 618 -1257 70 -36 112
-38 132 -6 20 29 106 364 106 408 0 25 -13 50 -46 94 -90 119 -168 312 -200
495 -20 114 -14 323 11 440 80 368 302 677 625 873 230 139 503 208 820 208
421 0 745 -124 1006 -385 169 -170 257 -329 314 -567 52 -222 43 -535 -26
-811 -101 -407 -325 -711 -621 -841 -109 -48 -207 -69 -333 -70 -164 -1 -256
33 -364 133 -60 56 -89 101 -116 179 -42 125 -28 206 110 641 166 524 185 681
104 855 -65 141 -192 215 -365 215 -258 0 -473 -197 -557 -509 -22 -83 -25
-117 -25 -246 0 -164 19 -276 67 -394 l25 -62 -199 -803 c-124 -504 -203 -840
-209 -900 -24 -211 -8 -605 35 -881 16 -102 30 -132 58 -122 38 15 287 419
401 652 105 214 120 258 246 719 97 353 104 376 118 355 31 -51 151 -156 224
-198 157 -89 326 -131 525 -131 316 0 616 96 892 286 111 76 318 284 400 402
233 333 353 702 376 1152 23 464 -144 914 -464 1251 -314 331 -723 535 -1211
605 -131 18 -461 26 -596 13z"/>
</g>
</svg>
