<?xml version="1.0" standalone="no"?>
<!DOCTYPE svg PUBLIC "-//W3C//DTD SVG 20010904//EN"
 "http://www.w3.org/TR/2001/REC-SVG-20010904/DTD/svg10.dtd">
<svg version="1.0" xmlns="http://www.w3.org/2000/svg"
 width="1000.000000pt" height="245.000000pt" viewBox="0 0 1000.000000 245.000000"
 preserveAspectRatio="xMidYMid meet">

<g transform="translate(0.000000,245.000000) scale(0.100000,-0.100000)"
fill="#38261C" stroke="none">
<path d="M995 2421 c-203 -48 -397 -139 -538 -253 -226 -181 -389 -455 -438
-732 -18 -104 -6 -433 18 -521 43 -152 143 -353 221 -445 54 -63 43 -26 -19
64 -72 106 -125 216 -170 351 -33 99 -33 103 -37 313 -3 207 -3 216 24 310 67
239 148 378 323 552 141 140 238 206 397 272 157 64 291 90 469 90 167 -1 253
-14 394 -61 178 -60 322 -147 469 -286 l82 -77 0 -834 0 -834 43 0 c23 1 231
5 462 10 460 10 480 13 612 75 95 44 163 113 208 208 30 61 36 87 41 172 22
346 -117 515 -476 575 -66 11 -72 14 -50 23 155 61 246 127 296 213 37 62 45
99 45 202 0 114 -25 178 -99 250 -136 133 -362 182 -834 182 l-248 0 0 -100 0
-100 -106 88 c-172 145 -331 229 -529 279 -86 22 -127 26 -290 29 -160 3 -203
1 -270 -15z m1882 -229 c179 -56 283 -186 291 -362 10 -197 -67 -349 -207
-413 -35 -16 -66 -22 -126 -22 -106 0 -169 30 -254 120 -127 136 -180 316
-181 609 l0 99 208 -6 c167 -4 219 -9 269 -25z m-397 -577 c33 -65 127 -165
187 -197 55 -30 123 -45 243 -53 175 -13 258 -43 325 -117 80 -87 117 -210
118 -388 2 -179 -34 -290 -123 -384 -98 -103 -202 -126 -582 -126 l-248 0 0
699 c0 385 3 707 7 716 4 13 12 1 27 -41 12 -33 33 -81 46 -109z"/>
<path d="M3752 1288 l3 -953 98 -3 97 -3 0 956 0 955 -100 0 -100 0 2 -952z"/>
<path d="M4140 2140 c0 -55 3 -100 6 -100 3 0 26 17 52 39 54 44 92 65 171 93
71 24 233 48 334 48 l77 0 0 -945 0 -945 105 0 105 0 0 946 0 947 133 -6 c198
-8 306 -42 450 -139 32 -22 60 -38 61 -36 1 1 0 47 -2 101 l-4 97 -744 0 -744
0 0 -100z"/>
<path d="M7062 1288 l3 -953 102 -3 103 -3 2 748 3 748 28 -80 c66 -184 151
-293 263 -334 30 -12 99 -28 154 -36 120 -18 146 -27 188 -68 64 -61 95 -143
137 -362 31 -164 67 -289 101 -357 75 -148 220 -226 472 -254 78 -8 83 8 9 30
-122 35 -183 124 -364 525 -41 91 -94 198 -118 237 -59 94 -165 194 -239 224
-31 13 -56 27 -56 31 0 5 33 18 73 30 97 29 134 49 200 109 38 34 68 74 89
118 31 62 33 73 33 172 0 95 -3 111 -28 162 -32 64 -106 137 -178 174 -134 67
-336 94 -711 94 l-268 0 2 -952z m683 907 c32 -9 76 -25 96 -35 62 -32 144
-115 170 -172 21 -48 24 -67 24 -188 -1 -170 -19 -226 -104 -311 -68 -68 -123
-89 -231 -89 -101 0 -156 27 -244 120 -127 135 -185 331 -186 624 l0 79 208
-6 c148 -4 224 -10 267 -22z"/>
<path d="M8882 1290 l3 -951 529 1 c291 0 532 2 534 5 5 5 52 299 51 325 0 8
-16 -16 -37 -55 -51 -97 -137 -185 -210 -218 -86 -39 -171 -48 -432 -45 l-235
3 -2 615 -3 615 32 -58 c44 -80 135 -162 253 -226 140 -76 211 -119 246 -148
l30 -25 -3 103 -3 104 -99 7 c-194 14 -286 47 -360 129 -78 87 -95 184 -96
548 l0 204 253 -6 c335 -7 425 -29 566 -136 30 -22 58 -41 63 -41 10 0 11 88
2 154 l-7 46 -538 0 -539 0 2 -950z"/>
<path d="M1162 2203 c-60 -88 -327 -612 -426 -838 -118 -270 -204 -506 -237
-655 -22 -102 -25 -256 -5 -304 28 -66 122 -104 182 -73 57 30 77 62 187 297
30 63 75 143 101 178 81 109 232 202 383 236 113 25 125 23 146 -27 10 -23 77
-185 150 -361 73 -175 138 -321 145 -323 21 -9 202 8 202 18 0 10 -319 769
-612 1457 -99 232 -184 422 -188 422 -5 0 -17 -12 -28 -27z m-4 -408 c147
-335 305 -706 301 -709 -2 -1 -53 -14 -113 -29 -165 -40 -244 -82 -341 -180
-78 -79 -86 -91 -184 -290 -110 -225 -128 -247 -201 -247 -40 0 -88 28 -106
62 -19 33 -17 202 2 296 19 93 82 290 136 427 96 242 403 874 418 859 5 -5 45
-90 88 -189z"/>
<path d="M6028 2193 c-48 -74 -161 -285 -273 -515 -273 -559 -404 -935 -405
-1156 0 -136 45 -197 145 -197 85 0 100 17 218 258 96 194 110 218 170 277 36
35 94 82 129 102 72 44 195 86 277 95 l57 5 103 -247 c56 -136 125 -301 153
-366 l50 -119 42 0 c75 0 166 13 166 23 0 5 -150 366 -334 801 -432 1023 -453
1070 -464 1074 -5 1 -20 -14 -34 -35z m-60 -256 c90 -199 324 -756 334 -791
15 -55 6 -76 -30 -76 -50 0 -145 -29 -232 -72 -156 -76 -249 -192 -371 -463
-34 -74 -68 -134 -91 -158 -36 -38 -39 -39 -89 -35 -40 4 -58 12 -82 37 -30
30 -32 36 -36 118 -10 245 95 545 434 1241 68 138 127 252 132 252 4 0 19 -24
31 -53z"/>
<path d="M512 248 c6 -17 172 -113 254 -148 283 -118 590 -132 889 -40 114 35
352 166 335 183 -3 3 -30 -10 -60 -29 -130 -84 -261 -136 -421 -171 -63 -13
-126 -18 -249 -18 -146 1 -178 4 -274 28 -169 42 -303 100 -424 182 -40 27
-56 31 -50 13z"/>
</g>
</svg>
